<svg id="Layer_3" data-name="Layer 3" xmlns="http://www.w3.org/2000/svg" viewBox="0 0 192 192"><defs><style>.cls-1{fill:#ff9100;}</style></defs><title>iconclementine</title><path class="cls-1" d="M175.2,33.73,151.63,57.3a50.06,50.06,0,0,0-63.37-.11L64.8,33.73a83.23,83.23,0,0,1,110.4,0Z"/><path class="cls-1" d="M175.2,158.28a83.26,83.26,0,0,1-110.4,0l23.46-23.47a50.06,50.06,0,0,0,63.37-.11Z"/><path class="cls-1" d="M112.93,96l-55.2,55.2A83.61,83.61,0,0,1,49.34,140H52.5a6,6,0,0,0,0-12H30a6,6,0,0,1,0-12h9.2a79.56,79.56,0,0,1-1.55-8H57.29a6,6,0,0,0,0-12H26a6,6,0,0,1,0-12H37.65a79,79,0,0,1,1.55-8H52.5a6,6,0,0,0,0-12H38a6,6,0,0,1,0-12H49.34a83.61,83.61,0,0,1,8.39-11.2Z"/><path class="cls-1" d="M28,58a6,6,0,0,1-6,6H19.5a6,6,0,0,1,0-12H22A6,6,0,0,1,28,58Z"/><path class="cls-1" d="M19.25,122a6,6,0,0,1-6,6h-2.5a6,6,0,0,1,0-12h2.5A6,6,0,0,1,19.25,122Z"/></svg>